<svg width="118" height="94" viewBox="0 0 118 94" fill="none" xmlns="http://www.w3.org/2000/svg">
<g opacity="0.07">
<path d="M30.4286 26.8351C29.1289 26.2239 26.9796 27.2176 26.2943 28.6718C24.9861 31.4476 29.2172 35.4678 30.7559 35.0363C32.4753 34.5541 32.8148 27.9572 30.4286 26.8351Z" stroke="#0F31AC" stroke-width="0.596313" stroke-miterlimit="10" stroke-linecap="round" stroke-dasharray="1.49 1.49 1.49 1.49 1.49 1.49"/>
<path d="M23.9277 33.1223C23.4639 32.854 18.5508 30.0119 15.7704 32.2612C13.8181 33.8405 13.7994 37.2163 15.2665 39.1136C18.1722 42.8713 27.1826 41.1866 28.1175 38.4978C28.7471 36.687 25.7913 34.2003 23.9277 33.1223Z" stroke="#0F31AC" stroke-width="0.596313" stroke-miterlimit="10" stroke-linecap="round" stroke-dasharray="1.49 1.49 1.49 1.49 1.49 1.49"/>
<path d="M30.2497 79.5233C42.2086 76.555 55.797 73.5331 76.8972 74.0478C88.6977 74.3356 91.3718 70.6736 100.315 66.1205C108.287 62.0625 112.202 53.9931 109.797 49.4198C107.37 44.8027 99.9756 46.6409 93.9201 39.7681C91.1624 36.6379 91.6477 34.4439 90.0556 30.9727C85.0136 19.9816 66.1166 11.3907 56.7981 15.9372C44.4872 21.9436 55.0119 47.8963 41.2505 54.9857C32.5459 59.4705 25.9666 50.8613 17.3717 57.4333C13.113 60.6897 7.9045 65.2575 7.50169 70.2173C7.50169 70.2173 6.93769 82.3433 30.2497 79.5233Z" stroke="#0F31AC" stroke-width="0.596313" stroke-miterlimit="10" stroke-linecap="round" stroke-dasharray="1.49 1.49 1.49 1.49 1.49 1.49"/>
<path d="M96.3211 66.0184C96.3211 66.0184 94.1549 68.8906 91.9882 72.8313C90.0349 76.385 88.5494 81.1733 88.2214 85.1712C87.3014 85.1277 86.2909 85.0868 85.1983 85.048C78.7279 84.8184 69.3866 84.6746 58.9998 84.6746C47.1916 84.6746 36.7348 84.8607 30.311 85.147C30.0899 85.1568 29.8735 85.1667 29.662 85.1768C21.6421 75.2365 5.49269 57.9187 20.3546 50.7944C20.3546 50.7944 21.4433 50.4628 23.0756 49.7505C28.2419 47.4957 38.8582 41.4283 37.6774 29.9882C37.6774 29.9882 37.275 27.8535 37.275 24.8831C37.275 17.9374 39.4739 6.42429 54.1539 6.94975C63.0437 7.26841 71.2309 11.7922 76.1807 19.033C81.0358 26.1349 88.7988 34.8729 95.1208 29.8843C96.5801 28.7324 98.5097 28.3056 100.311 28.812C104.862 30.0902 110.031 36.7071 96.3211 66.0184Z" fill="#039D55"/>
</g>
<path opacity="0.15" d="M108.126 85.5578C108.126 86.0279 86.1316 86.409 58.9999 86.409C43.6913 86.409 30.0182 86.2877 21.0085 86.0975C18.9332 86.0536 17.1057 86.0062 15.5626 85.9557C14.5461 85.9226 13.6531 85.8879 12.8939 85.8521C10.9406 85.7606 9.87378 85.6615 9.87378 85.5578C9.87378 85.4259 11.6053 85.301 14.6958 85.1897C15.9614 85.144 17.4548 85.1006 19.1505 85.0601C28.0732 84.8461 42.5979 84.7067 58.9999 84.7067C73.4275 84.7067 86.4025 84.8144 95.3901 84.9861C103.304 85.1372 108.126 85.3378 108.126 85.5578Z" fill="#040C2B"/>
<path d="M53.5758 79.1157C53.5758 79.1157 53.2461 81.9707 53.5758 82.6218L51.1505 83.0976L51.8804 78.4144L53.5758 79.1157Z" fill="#DB965F"/>
<path d="M53.4923 84.4279C53.4923 84.4279 55.4811 84.9497 57.0042 84.5307C57.2312 84.4682 57.3734 84.2273 57.3236 83.9836C57.2633 83.6885 57.0112 83.3336 56.1969 83.1931C56.1969 83.1931 54.0077 82.186 53.3985 81.3846C53.3985 81.3846 52.1375 82.0549 51.3852 81.535C51.3852 81.535 50.8131 81.9724 50.7198 82.8341C50.6519 83.461 51.078 84.0271 51.6671 84.1024C52.2853 84.1814 53.1053 84.3021 53.4923 84.4279Z" fill="black"/>
<path d="M50.3691 78.7898C50.3691 78.7898 50.0395 81.6448 50.3691 82.296L47.9438 82.7718L48.6738 78.0886L50.3691 78.7898Z" fill="#DB965F"/>
<path d="M50.3282 84.4214C50.3282 84.4214 52.317 84.9432 53.8401 84.5242C54.0671 84.4618 54.2093 84.2209 54.1595 83.9772C54.0993 83.682 53.8472 83.3272 53.0329 83.1866C53.0329 83.1866 50.8436 82.1795 50.2345 81.3782C50.2345 81.3782 48.9079 81.8959 48.1556 81.376C48.1556 81.376 47.649 81.9659 47.5557 82.8276C47.4878 83.4545 47.9139 84.0207 48.503 84.0959C49.1212 84.1749 49.9412 84.2956 50.3282 84.4214Z" fill="black"/>
<path d="M50.9904 57.5683L52.54 68.2213L51.5981 79.3409L52.0836 79.4197L54.0706 79.7416L55.9282 69.0157C56.1177 67.9213 56.2048 66.8095 56.1883 65.6966L56.0483 56.3006L50.9153 57.0519L50.9904 57.5683Z" fill="#040C2B"/>
<path opacity="0.15" d="M52.5395 68.2216L51.5976 79.3411L52.0831 79.4199L53.8207 68.4745L54.1631 57.5685H50.9899L52.5395 68.2216Z" fill="black"/>
<path d="M48.8071 56.6386C48.8071 56.6386 48.0537 58.4668 48.4069 62.9496L48.7043 68.6109L48.1125 79.7416L50.7165 79.9039L52.4886 70.4565C52.805 68.7438 52.9762 67.0043 53.0003 65.2591L53.1278 55.9999L48.8071 56.6386Z" fill="#040C2B"/>
<path d="M55.4529 51.7496L56.9996 54.8184L57.1417 55.0943C57.2895 55.3563 57.6034 55.4635 57.8708 55.343L63.8922 52.6324C64.6511 52.4628 65.097 52.1426 65.3531 51.8653C65.5886 51.6101 65.6779 51.2502 65.5913 50.9139C65.3607 50.0189 64.9116 50.0247 64.9116 50.0247C64.2329 49.8604 63.7353 50.3577 63.5188 50.5565C63.4857 50.5872 63.4678 50.6048 63.4678 50.6048L63.6955 50.161C63.7732 50.0101 63.6791 49.8246 63.514 49.8036C62.8822 50.5975 62.7362 51.3188 62.7362 51.3188L62.7274 51.3227L58.4112 53.2192L58.2576 52.8069L57.6416 51.1545L56.7895 51.3859L56.373 51.4994L55.4529 51.7496Z" fill="#DB965F"/>
<path d="M50.2014 47.0338L50.2122 49.006L53.1426 49.5408L54.8448 48.6717L54.1085 47.7166L53.7015 47.1887C53.6201 47.0828 53.5854 46.9467 53.6063 46.8132L53.9614 44.5491L51.1064 43.2677L51.3471 45.067L51.3865 45.3624C51.4727 46.3207 50.2014 47.0338 50.2014 47.0338Z" fill="#C9885B"/>
<path opacity="0.15" d="M51.1068 43.2678L51.3761 45.3068C52.377 47.1063 53.6435 47.5277 54.109 47.7166L53.7019 47.1887C53.6205 47.0829 53.5858 46.9467 53.6067 46.8132L53.9618 44.5491L51.1068 43.2678Z" fill="black"/>
<path d="M50.4935 43.5525L50.9258 44.3653C51.3528 44.87 51.7611 45.2483 52.1315 45.532C53.1832 46.3373 53.9298 46.378 53.9298 46.378C54.2495 46.3931 54.4766 46.1254 54.6375 45.722C55.0909 44.5845 55.0185 42.3674 55.0185 42.3674L51.3497 42.352L50.4935 43.5525Z" fill="#DB965F"/>
<path d="M50.5549 44.2194C50.7595 45.6005 51.4138 45.4306 51.4138 45.4306L51.3519 44.8262L50.9834 44.3921C50.4833 43.4638 51.1811 43.4936 51.1811 43.4936C51.7557 43.5829 51.818 44.2936 51.818 44.2936L52.0105 44.2708C52.1154 44.0565 52.0772 43.3654 52.0772 43.3654C53.2419 41.5881 55.0229 43.087 55.0229 43.087C56.1835 42.0033 55.0695 41.4775 55.0695 41.4775C55.0918 40.1075 53.7998 40.523 53.7998 40.523C53.7998 40.523 52.8262 39.849 52.3657 40.403C52.3657 40.403 51.5556 40.4461 51.3683 41.3097C51.3683 41.3097 50.6238 41.2398 50.4792 42.0195C50.4792 42.0195 50.4618 42.0466 50.4352 42.0964C50.1454 42.638 50.1418 43.286 50.4122 43.8375C50.4804 43.9765 50.5401 44.1197 50.5549 44.2194Z" fill="black"/>
<path d="M56.4444 53.6843L57.0143 53.401L58.1935 52.8146L58.4532 52.6853C57.3443 49.0867 56.5992 48.4161 56.2827 48.3131C56.1686 48.276 56.1102 48.3125 56.1102 48.3125L55.1465 51.8385L56.4444 53.6843Z" fill="white"/>
<path opacity="0.15" d="M55.4013 51.8672L56.8765 54.6012L56.33 49.5315L55.9657 49.319L55.6015 48.8333C55.4874 48.7972 54.9336 48.8637 54.9336 48.8637L54.2657 50.6547L55.4013 51.8672Z" fill="black"/>
<path d="M47.6383 52.4482L47.674 54.2864L47.69 55.1028L47.7182 56.5438L47.7297 57.1329L47.7341 57.363L47.7456 57.9492L47.754 58.3749L47.7511 58.565L47.7394 59.3842L47.7292 60.0938L56.7386 59.7282L56.7081 59.3467L56.6423 58.5274L56.5958 57.9493L56.5375 57.3259L56.5195 57.1329L56.461 56.507L56.3299 55.1028L56.2605 54.3596C56.2584 54.3353 56.2571 54.3107 56.2581 54.2864V54.282L56.3242 52.2563L56.3511 51.44L56.4028 49.8538L56.4294 49.0374L56.4446 48.5755C56.4482 48.4653 56.3863 48.3645 56.2889 48.3209L54.4278 47.4902L54.3531 47.4567L53.6757 47.1543C53.9365 47.8385 53.6767 48.2096 53.3519 48.4094C53.2007 48.5026 53.0333 48.5564 52.8627 48.5726C52.822 48.5763 52.7815 48.5781 52.7408 48.5773C52.5695 48.5757 52.3974 48.5358 52.2381 48.459C50.2573 47.5077 50.6876 46.6843 50.6876 46.6843L50.0828 47.0935L49.982 47.1616L47.8318 48.6159L47.8104 49.0374L47.7688 49.8538L47.6881 51.44L47.6686 51.8257L47.6466 52.2563L47.6391 52.4049C47.6383 52.4195 47.638 52.4339 47.6383 52.4482Z" fill="white"/>
<path d="M47.7688 49.854H56.4027L56.4294 49.0377H47.8103L47.7688 49.854Z" fill="#E3E9F7"/>
<path d="M47.6466 52.2563H56.3241L56.351 51.4399H47.6881L47.6685 51.8256L47.6466 52.2563Z" fill="#E3E9F7"/>
<path d="M47.6742 54.2868L47.6901 55.1031H56.3301L56.2606 54.3599C56.2585 54.3356 56.2572 54.3111 56.2583 54.2868H47.6742Z" fill="#E3E9F7"/>
<path d="M47.7183 56.544L47.7298 57.1331L47.7342 57.3631L56.5376 57.3261L56.5196 57.1331L56.4611 56.5071L47.7183 56.544Z" fill="#E3E9F7"/>
<path d="M47.7395 59.3846L56.7082 59.347L56.6424 58.5278L47.7513 58.5654L47.7395 59.3846Z" fill="#E3E9F7"/>
<path opacity="0.15" d="M47.6375 52.4266L47.7536 58.375L48.133 58.3988L48.9988 51.7291L47.668 51.8256L47.6375 52.4266Z" fill="black"/>
<path d="M48.039 54.7613L47.8378 55.4125L46.1604 56.6401C45.8873 56.4326 45.7555 56.0867 45.823 55.6708L46.2683 52.6367L48.9969 51.7371L48.039 54.7613Z" fill="#DB965F"/>
<path d="M55.5448 61.5966C55.5448 61.5966 54.7805 62.127 53.0812 60.6412L47.2928 57.3501L46.5239 56.913C46.1732 56.7143 45.9618 56.4464 45.8917 56.1647L47.8378 55.4125L48.9629 56.1471L53.2053 58.8245L53.3802 58.9348C53.3802 58.9348 54.019 58.6541 55.0084 58.7418C55.0926 58.8923 55.0084 59.0748 54.8461 59.0942L54.3694 59.1507C54.3724 59.1516 54.3974 59.1568 54.4395 59.1675C54.7266 59.2392 55.8096 59.5502 56.096 60.2108C56.096 60.2108 56.4992 61.3192 55.5448 61.5966Z" fill="#DB965F"/>
<path d="M48.4351 54.1203L48.2628 54.0547L46.1767 53.2609L46.1509 53.251C46.6251 48.5713 47.9449 48.6063 47.9449 48.6063C50.191 48.9087 48.4351 54.1203 48.4351 54.1203Z" fill="white"/>
<path opacity="0.15" d="M52.5314 48.844C52.7029 48.8037 52.7313 48.5987 52.733 48.5833C52.7035 48.7039 52.6171 48.7881 52.5314 48.844Z" fill="black"/>
<path d="M51.8241 44.2801L52.0753 45.3032C52.1127 45.4553 52.2037 45.5891 52.3319 45.6791C53.2768 46.3425 53.9299 46.3781 53.9299 46.3781C54.2496 46.3932 54.4767 46.1255 54.6376 45.7221C53.3278 45.7552 52.0173 44.1553 52.0173 44.1553L51.8241 44.2801Z" fill="black"/>
<path d="M70.4102 40.7663C69.9089 40.8295 69.7987 43.2297 70.1641 46.1274C70.5295 49.025 71.2321 51.3228 71.7334 51.2596C72.2347 51.1964 72.3449 48.7961 71.9795 45.8985C71.6141 43.0008 70.9115 40.7031 70.4102 40.7663ZM71.7128 51.0964C71.5714 51.1143 71.3091 50.7697 70.9971 49.7494C70.7046 48.7929 70.4472 47.5017 70.2721 46.1138C70.0971 44.7259 70.026 43.4112 70.0719 42.412C70.1208 41.3462 70.2894 40.9473 70.4308 40.9295C70.5722 40.9117 70.8345 41.2562 71.1465 42.2765C71.4389 43.2331 71.6964 44.5242 71.8714 45.9121C72.0465 47.3 72.1176 48.6147 72.0717 49.6139C72.0228 50.6797 71.8542 51.0786 71.7128 51.0964Z" fill="white"/>
<path d="M71.7125 51.0966C71.5711 51.1145 71.3088 50.7699 70.9968 49.7496C70.7043 48.7931 70.4468 47.5019 70.2718 46.114C70.0968 44.7261 70.0257 43.4114 70.0716 42.4122C70.1205 41.3464 70.289 40.9475 70.4305 40.9297C70.5719 40.9119 70.8341 41.2564 71.1462 42.2767C71.4386 43.2333 71.6961 44.5244 71.8711 45.9123C72.0462 47.3002 72.1173 48.6149 72.0714 49.6141C72.0225 50.6799 71.8539 51.0788 71.7125 51.0966Z" fill="#ACBCF8"/>
<path d="M70.1676 46.156C69.8052 43.2824 69.9106 40.8983 70.4014 40.7973L70.3937 40.7368L69.4404 41.7216C68.1287 43.0764 66.5933 44.1648 64.9084 44.9342L64.1346 45.2876C63.0163 46.1007 63.2467 47.9278 64.5319 48.4378L65.5882 48.5838C67.1556 48.8005 68.6687 49.3579 70.0326 50.2212L71.4742 51.1337C71.0125 50.5752 70.4726 48.5748 70.1676 46.156Z" fill="#CDD7FB"/>
<path d="M71.7202 51.2892L71.7265 51.2932L71.726 51.2889C71.7241 51.289 71.7221 51.2892 71.7202 51.2892Z" fill="#C5D9F6"/>
<path d="M64.8243 52.5278L64.0614 52.624C63.9848 52.6337 63.9073 52.5689 63.8689 52.4623C63.7553 52.1467 63.5196 51.3926 63.3009 50.0673C63.2681 49.8689 63.2357 49.6576 63.2042 49.433L64.1011 49.3199C64.1011 49.3199 64.1574 49.5765 64.2503 49.9476C64.407 50.5734 64.6676 51.5254 64.9377 52.1223C65.0157 52.2948 64.9554 52.5113 64.8243 52.5278Z" fill="#0F31AC"/>
<path opacity="0.15" d="M64.2503 49.9476L63.3009 50.0673C63.2681 49.8689 63.2357 49.6576 63.2042 49.433L64.1011 49.3199C64.1011 49.3199 64.1574 49.5765 64.2503 49.9476Z" fill="black"/>
<path d="M64.3391 48.3601L62.7291 48.5631L62.8835 49.787L64.4934 49.584L64.3391 48.3601Z" fill="#0F31AC"/>
<path opacity="0.15" d="M64.3391 48.3595L62.7291 48.5625L62.8073 49.1826L64.4173 48.9796L64.3391 48.3595Z" fill="black"/>
<path d="M70.6086 47.5634L70.2382 44.6259C70.9304 44.5386 71.5624 45.0291 71.6497 45.7213L71.704 46.1519C71.7913 46.8441 71.3009 47.4761 70.6086 47.5634Z" fill="#829CF8"/>
<path d="M63.4706 45.0565C62.492 45.1799 61.768 45.9637 61.7256 46.8764L61.6318 46.8882C61.5752 46.8953 61.5282 46.9366 61.4982 46.9974C61.4681 47.0581 61.4548 47.1386 61.4656 47.2242C61.4872 47.3955 61.5967 47.5226 61.7101 47.5083L61.8038 47.4965C62.0715 48.3701 62.9674 48.9497 63.946 48.8263L65.5935 48.6185L65.1181 44.8488L63.4706 45.0565Z" fill="#0F31AC"/>
<path opacity="0.15" d="M61.6966 46.8803L61.7748 47.5005L61.7099 47.5087C61.5966 47.5229 61.4871 47.3958 61.4655 47.2245C61.4547 47.139 61.468 47.0584 61.4981 46.9977C61.528 46.9369 61.5751 46.8957 61.6317 46.8885L61.6966 46.8803Z" fill="black"/>
<path d="M62.7278 51.3227L62.8878 51.5956L63.4949 51.0189C63.4618 51.0495 63.4682 50.6048 63.4682 50.6048L63.6959 50.161C63.7736 50.0101 63.6795 49.8246 63.5143 49.8036C62.8826 50.5975 62.7366 51.3188 62.7366 51.3188L62.7278 51.3227Z" fill="#DB965F"/>
<path d="M64.3542 50.1364C64.3542 50.1364 63.5771 51.4614 64.8764 51.8311L64.3542 50.1364Z" fill="#DB965F"/>
<path d="M81.2627 58.9424H36.738V84.788H81.2627V58.9424Z" fill="#70D9A8"/>
<path d="M81.262 56.0416H36.7546V58.9483H81.262V56.0416Z" fill="#62E9AA"/>
<path d="M38.2225 57.8249C38.4926 57.8249 38.7116 57.6167 38.7116 57.3598C38.7116 57.103 38.4926 56.8947 38.2225 56.8947C37.9524 56.8947 37.7334 57.103 37.7334 57.3598C37.7334 57.6167 37.9524 57.8249 38.2225 57.8249Z" fill="white"/>
<path d="M39.6481 57.8249C39.9183 57.8249 40.1372 57.6167 40.1372 57.3598C40.1372 57.103 39.9183 56.8947 39.6481 56.8947C39.378 56.8947 39.1591 57.103 39.1591 57.3598C39.1591 57.6167 39.378 57.8249 39.6481 57.8249Z" fill="white"/>
<path d="M41.0751 57.8249C41.3453 57.8249 41.5642 57.6167 41.5642 57.3598C41.5642 57.103 41.3453 56.8947 41.0751 56.8947C40.805 56.8947 40.5861 57.103 40.5861 57.3598C40.5861 57.6167 40.805 57.8249 41.0751 57.8249Z" fill="white"/>
<path d="M79.2498 60.97H38.7599V82.7639H79.2498V60.97Z" fill="#F9FBFD"/>
<path d="M56.7534 68.1293H54.49V79.9327H56.7534V68.1293Z" fill="#CDD7FB"/>
<path d="M59.8527 64.8H57.5892V79.933H59.8527V64.8Z" fill="#ACBCF8"/>
<path d="M53.6708 73.9051H51.4073V79.933H53.6708V73.9051Z" fill="#ACBCF8"/>
<path d="M50.5875 70.8195H48.3241V79.9329H50.5875V70.8195Z" fill="#CDD7FB"/>
<path d="M47.5048 76.8356H45.2413V79.9328H47.5048V76.8356Z" fill="#ACBCF8"/>
<path d="M44.4216 73.9051H42.1582V79.933H44.4216V73.9051Z" fill="#CDD7FB"/>
<path d="M41.137 63.785V79.9523H60.9143" stroke="#040C2B" stroke-width="0.0247559" stroke-miterlimit="10"/>
<path d="M42.1516 68.258C42.1516 68.258 50.7685 68.5604 55.6586 64.2625" stroke="#E3E9F7" stroke-width="0.12378" stroke-miterlimit="10"/>
<path d="M55.8824 64.7129L56.1692 63.7833L55.2207 63.9996L55.8824 64.7129Z" fill="#E3E9F7"/>
<path d="M77.0358 72.5925H63.9712C63.9027 72.5925 63.847 72.5369 63.847 72.4683V72.4317C63.847 72.3631 63.9027 72.3075 63.9712 72.3075H77.0358C77.1043 72.3075 77.1599 72.3631 77.1599 72.4317V72.4683C77.16 72.5369 77.1044 72.5925 77.0358 72.5925Z" fill="#DCDCDC"/>
<path d="M77.0357 73.3079H63.1283C63.0597 73.3079 63.0042 73.2523 63.0042 73.1838V73.1472C63.0042 73.0786 63.0597 73.023 63.1283 73.023H77.0357C77.1043 73.023 77.1599 73.0786 77.1599 73.1472V73.1838C77.1599 73.2523 77.1043 73.3079 77.0357 73.3079Z" fill="#DCDCDC"/>
<path d="M77.0357 74.0256H63.1283C63.0597 74.0256 63.0042 73.97 63.0042 73.9014V73.8648C63.0042 73.7963 63.0597 73.7407 63.1283 73.7407H77.0357C77.1043 73.7407 77.1599 73.7963 77.1599 73.8649V73.9014C77.1599 73.97 77.1043 74.0256 77.0357 74.0256Z" fill="#DCDCDC"/>
<path d="M77.0357 74.7416H63.1283C63.0597 74.7416 63.0042 74.686 63.0042 74.6174V74.5808C63.0042 74.5123 63.0597 74.4567 63.1283 74.4567H77.0357C77.1043 74.4567 77.1599 74.5123 77.1599 74.5808V74.6174C77.1599 74.686 77.1043 74.7416 77.0357 74.7416Z" fill="#DCDCDC"/>
<path d="M77.0357 75.4571H63.1283C63.0597 75.4571 63.0042 75.4015 63.0042 75.3329V75.2963C63.0042 75.2277 63.0597 75.1721 63.1283 75.1721H77.0357C77.1043 75.1721 77.1599 75.2277 77.1599 75.2963V75.3329C77.1599 75.4015 77.1043 75.4571 77.0357 75.4571Z" fill="#DCDCDC"/>
<path d="M77.0357 76.1725H63.1283C63.0597 76.1725 63.0042 76.1169 63.0042 76.0483V76.0117C63.0042 75.9431 63.0597 75.8875 63.1283 75.8875H77.0357C77.1043 75.8875 77.1599 75.9431 77.1599 76.0117V76.0483C77.1599 76.1169 77.1043 76.1725 77.0357 76.1725Z" fill="#DCDCDC"/>
<path d="M76.3414 76.8409H63.1283C63.0597 76.8409 63.0042 76.7853 63.0042 76.7167V76.6801C63.0042 76.6115 63.0597 76.5559 63.1283 76.5559H76.3414C76.41 76.5559 76.4656 76.6115 76.4656 76.6801V76.7167C76.4656 76.7853 76.41 76.8409 76.3414 76.8409Z" fill="#DCDCDC"/>
<path d="M69.9536 67.1169L64.7742 67.1423C64.7482 67.1424 64.7271 67.1215 64.727 67.0955L64.7263 66.9673C64.7262 66.9414 64.7471 66.9202 64.7731 66.9201L69.9525 66.8947C69.9784 66.8946 69.9996 66.9155 69.9997 66.9415L70.0004 67.0696C70.0005 67.0956 69.9795 67.1168 69.9536 67.1169Z" fill="#C6C6C6"/>
<path d="M72.8257 67.639L64.7756 67.6785C64.7503 67.6786 64.7297 67.6583 64.7296 67.633L64.729 67.5084C64.7289 67.4832 64.7493 67.4626 64.7745 67.4625L72.8246 67.423C72.8499 67.4229 72.8705 67.4433 72.8706 67.4685L72.8712 67.5931C72.8713 67.6183 72.8509 67.6389 72.8257 67.639Z" fill="#C6C6C6"/>
<path d="M67.9914 68.2927L64.7871 68.3085C64.7568 68.3086 64.7322 68.2842 64.7321 68.254L64.7313 68.1048C64.7312 68.0745 64.7556 68.0499 64.7858 68.0498L67.9901 68.0341C68.0204 68.0339 68.045 68.0583 68.0451 68.0885L68.0459 68.2377C68.046 68.268 68.0216 68.2926 67.9914 68.2927Z" fill="#C6C6C6"/>
<path d="M72.116 68.7646L64.779 68.8006C64.7547 68.8007 64.7348 68.781 64.7347 68.7567L64.7341 68.6365C64.734 68.6121 64.7537 68.5922 64.778 68.5921L72.1149 68.5562C72.1393 68.556 72.1591 68.5757 72.1593 68.6L72.1599 68.7202C72.16 68.7446 72.1403 68.7645 72.116 68.7646Z" fill="#C6C6C6"/>
<path d="M63.5146 67.1844C63.5153 67.3253 63.4016 67.4401 63.2607 67.4408C63.1198 67.4415 63.005 67.3278 63.0043 67.1869C63.0036 67.046 63.1173 66.9312 63.2582 66.9305C63.3991 66.9297 63.5139 67.0434 63.5146 67.1844Z" fill="#C6C6C6"/>
<path d="M63.5204 68.3146C63.521 68.4555 63.4074 68.5703 63.2664 68.5711C63.1255 68.5718 63.0107 68.4581 63.01 68.3171C63.0093 68.1762 63.123 68.0614 63.2639 68.0607C63.4049 68.06 63.5197 68.1737 63.5204 68.3146Z" fill="#C6C6C6"/>
<path opacity="0.1" d="M55.4745 61.8081C55.4745 61.8081 54.7102 62.3385 53.0107 60.8528L49.6613 58.9483L47.2224 57.5616L46.4535 57.1245C46.3099 57.0432 46.1901 56.9501 46.0933 56.8493L46.09 56.8517C45.8526 56.6712 45.722 56.3861 45.7363 56.0416H48.4071L48.8926 56.3586L52.9962 58.9483L53.135 59.036L53.3099 59.1462C53.3099 59.1462 53.6593 58.9928 54.2417 58.9483C54.4297 58.9338 54.6423 58.9309 54.8752 58.9483C54.8959 58.9497 54.917 58.9514 54.9382 58.9533C55.0223 59.1037 54.938 59.2863 54.7756 59.3058L54.299 59.3622C54.302 59.3631 54.327 59.3683 54.369 59.3789C54.6562 59.4508 55.7393 59.7617 56.0255 60.4223C56.0255 60.4223 56.4288 61.5308 55.4745 61.8081Z" fill="black"/>
<path d="M48.2626 54.0555L48.0389 54.7619L47.8377 55.4131L46.1603 56.6408C45.8872 56.4332 45.7554 56.0873 45.8228 55.6714L46.1765 53.2617L48.2626 54.0555Z" fill="#DB965F"/>
<path d="M55.5447 61.5973C55.5447 61.5973 54.7804 62.1277 53.0811 60.6419L47.2926 57.3508L46.5237 56.9136C46.173 56.7149 45.9617 56.447 45.8916 56.1653L47.8377 55.4132L48.9627 56.1478L53.2052 58.8251L53.38 58.9354C53.38 58.9354 54.0188 58.6548 55.0083 58.7425C55.0925 58.8929 55.0083 59.0754 54.8459 59.0949L54.3693 59.1513C54.3723 59.1522 54.3972 59.1575 54.4394 59.1681C54.7265 59.2398 55.8095 59.5508 56.0958 60.2114C56.0958 60.2114 56.4991 61.3199 55.5447 61.5973Z" fill="#DB965F"/>
<g opacity="0.1">
<path d="M39.0188 75.6227H32.29C31.2279 75.6227 30.3669 76.4837 30.3669 77.5458V83.3111C30.3669 84.3732 31.2279 85.2342 32.29 85.2342H39.0188C40.0809 85.2342 40.9419 84.3732 40.9419 83.3111V77.5458C40.9419 76.4837 40.081 75.6227 39.0188 75.6227Z" fill="black"/>
</g>
<path d="M38.7137 85.2343H31.9848C30.9228 85.2343 30.0618 84.3733 30.0618 83.3112V77.5459C30.0618 76.4838 30.9228 75.6228 31.9848 75.6228H38.7137C39.7758 75.6228 40.6367 76.4838 40.6367 77.5459V83.3112C40.6368 84.3733 39.7758 85.2343 38.7137 85.2343Z" fill="#F6471E"/>
<path d="M37.7482 80.4284L32.9512 83.198V77.6588L37.7482 80.4284Z" fill="white"/>
<path opacity="0.1" d="M81.2281 67.8085C77.8662 67.8085 75.1409 70.5339 75.1409 73.8958C75.1409 76.2889 76.522 78.359 78.5305 79.3537L78.4504 79.6802L77.6064 83.1186L77.5061 83.0961L76.8283 82.9439L76.8274 82.9476C76.0498 82.0649 74.7483 81.2391 73.9625 81.0627C72.6716 80.7728 71.3816 81.6223 71.0813 82.9601C70.7809 84.2978 71.584 85.6172 72.8749 85.907C73.766 86.1071 75.2459 85.9363 76.2699 85.4311L76.2698 85.4314L76.4882 85.4804L76.6772 85.5228L76.9477 85.5835L77.0298 85.6019L77.9089 85.7993C77.9598 85.8107 78.0107 85.8169 78.061 85.818C78.2276 85.822 78.3873 85.7716 78.5191 85.6803C78.6733 85.5737 78.7893 85.411 78.8336 85.2137L79.0529 84.2365C79.1351 83.8704 78.9431 83.5067 78.6129 83.3599C78.5669 83.3395 78.5183 83.3233 78.4673 83.3118L78.4529 83.3086L79.5633 80.1185L79.6797 79.7841C80.0094 79.8705 80.35 79.9298 80.6989 79.9599L80.7609 81.0163L81.0023 85.1317C81.0121 85.2985 81.1599 85.4284 81.3377 85.4264C81.5155 85.4244 81.6603 85.2912 81.6663 85.1241L81.8126 81.0292L81.8511 79.9515C82.1658 79.9195 82.4733 79.8633 82.772 79.7853L82.888 80.1184L84.7112 85.3563C84.7661 85.5141 84.9438 85.5987 85.1142 85.5482C85.2847 85.4978 85.3877 85.3301 85.3479 85.1678L84.0011 79.6801L83.9215 79.3558C85.9323 78.362 87.3155 76.2906 87.3155 73.8957C87.3154 70.5339 84.5901 67.8085 81.2281 67.8085Z" fill="black"/>
<path d="M81.2579 76.3968L79.9624 80.1184L78.1393 85.3563C78.0843 85.5141 77.9066 85.5987 77.7362 85.5483C77.5657 85.4978 77.4627 85.3302 77.5026 85.1678L78.8494 79.6802L79.7637 75.9545C79.8061 75.7817 79.9931 75.6822 80.1747 75.736L81.0321 75.9898C81.2137 76.0435 81.3164 76.2287 81.2579 76.3968Z" fill="#0F31AC"/>
<path d="M85.513 85.5483C85.3426 85.5987 85.1649 85.5141 85.1099 85.3563L83.2868 80.1184L81.9913 76.3968C81.9328 76.2287 82.0356 76.0435 82.217 75.9898L83.0745 75.736C83.256 75.6822 83.443 75.7816 83.4854 75.9545L84.3998 79.6802L85.7467 85.1678C85.7865 85.3302 85.6835 85.4978 85.513 85.5483Z" fill="#0F31AC"/>
<path opacity="0.1" d="M81.2582 76.3968L79.9627 80.1184C79.5746 80.0086 79.2022 79.8611 78.8497 79.6802L79.764 75.9545C79.8064 75.7817 79.9934 75.6822 80.1749 75.736L81.0324 75.9898C81.214 76.0435 81.3167 76.2287 81.2582 76.3968Z" fill="black"/>
<path opacity="0.1" d="M84.3998 79.6802C84.0473 79.8611 83.6749 80.0086 83.2868 80.1184L81.9913 76.3968C81.9328 76.2287 82.0356 76.0435 82.217 75.9898L83.0745 75.736C83.256 75.6822 83.443 75.7816 83.4854 75.9545L84.3998 79.6802Z" fill="black"/>
<path d="M82.4038 75.6433L82.267 79.477L82.2115 81.0291L82.0653 85.124C82.0592 85.2911 81.9144 85.4242 81.7366 85.4263C81.5589 85.4283 81.4111 85.2984 81.4012 85.1315L81.1598 81.0162L81.0765 79.5951L80.8457 75.6611C80.8353 75.4835 80.9847 75.3334 81.1739 75.3312L82.0681 75.3209C82.2575 75.3188 82.4102 75.4654 82.4038 75.6433Z" fill="#0F31AC"/>
<path opacity="0.1" d="M82.4038 75.6286L82.267 79.287L82.2115 80.768C82.0628 80.7785 81.9124 80.7838 81.7609 80.7838C81.558 80.7838 81.3576 80.7743 81.1598 80.7558L81.0765 79.3996L80.8457 75.6455C80.8353 75.476 80.9847 75.3328 81.1739 75.3307L82.0681 75.3209C82.2575 75.3189 82.4102 75.4588 82.4038 75.6286Z" fill="black"/>
<path d="M81.6272 79.9831C84.9891 79.9831 87.7145 77.2577 87.7145 73.8958C87.7145 70.5339 84.9891 67.8085 81.6272 67.8085C78.2653 67.8085 75.5399 70.5339 75.5399 73.8958C75.5399 77.2577 78.2653 79.9831 81.6272 79.9831Z" fill="#F6471E"/>
<path d="M81.627 79.1892C80.213 79.1892 78.8837 78.6386 77.8838 77.6387C76.884 76.6389 76.3334 75.3096 76.3334 73.8956C76.3334 72.4816 76.884 71.1523 77.8838 70.1524C78.8837 69.1526 80.213 68.602 81.627 68.602C83.041 68.602 84.3703 69.1526 85.3702 70.1524C86.37 71.1523 86.9206 72.4816 86.9206 73.8956C86.9206 75.3095 86.37 76.6389 85.3702 77.6387C84.3703 78.6386 83.041 79.1892 81.627 79.1892Z" fill="white"/>
<path d="M81.6274 78.396C80.4254 78.396 79.2954 77.9279 78.4454 77.078C77.5955 76.228 77.1274 75.098 77.1274 73.896C77.1274 72.694 77.5955 71.564 78.4454 70.714C79.2954 69.8641 80.4254 69.396 81.6274 69.396C82.8294 69.396 83.9595 69.8641 84.8094 70.714C85.6593 71.564 86.1274 72.694 86.1274 73.896C86.1274 75.098 85.6593 76.228 84.8094 77.078C83.9594 77.9279 82.8294 78.396 81.6274 78.396Z" fill="#F6471E"/>
<path d="M81.6272 77.6021C80.6372 77.6021 79.7065 77.2166 79.0065 76.5166C78.3064 75.8165 77.9209 74.8858 77.9209 73.8958C77.9209 72.9058 78.3064 71.9751 79.0065 71.275C79.7065 70.575 80.6372 70.1895 81.6272 70.1895C82.6172 70.1895 83.5479 70.575 84.248 71.275C84.948 71.9751 85.3335 72.9058 85.3335 73.8958C85.3335 74.8858 84.948 75.8165 84.248 76.5166C83.5479 77.2166 82.6172 77.6021 81.6272 77.6021Z" fill="white"/>
<path d="M81.627 76.8085C80.849 76.8085 80.1176 76.5055 79.5675 75.9554C79.0173 75.4052 78.7144 74.6738 78.7144 73.8958C78.7144 73.1178 79.0173 72.3863 79.5675 71.8362C80.1176 71.2861 80.849 70.9831 81.627 70.9831C82.4051 70.9831 83.1365 71.2861 83.6866 71.8362C84.2368 72.3863 84.5397 73.1178 84.5397 73.8958C84.5397 74.6737 84.2368 75.4052 83.6866 75.9553C83.1365 76.5055 82.405 76.8085 81.627 76.8085Z" fill="#F6471E"/>
<path d="M81.6269 76.0151C81.0608 76.0151 80.5287 75.7946 80.1285 75.3944C79.7282 74.9942 79.5078 74.4621 79.5078 73.896C79.5078 73.33 79.7282 72.7979 80.1285 72.3976C80.5287 71.9974 81.0608 71.777 81.6268 71.777C82.1928 71.777 82.725 71.9974 83.1252 72.3977C83.5255 72.7979 83.7459 73.3301 83.7459 73.8961C83.7459 74.4621 83.5254 74.9942 83.1252 75.3944C82.725 75.7947 82.1928 76.0151 81.6269 76.0151Z" fill="white"/>
<path d="M81.6273 75.2213C81.2732 75.2213 80.9404 75.0834 80.6901 74.8331C80.4397 74.5827 80.3019 74.2499 80.3019 73.8959C80.3019 73.5418 80.4398 73.209 80.6901 72.9586C80.9404 72.7083 81.2733 72.5705 81.6273 72.5705C81.9813 72.5705 82.3141 72.7083 82.5645 72.9587C82.8148 73.209 82.9527 73.5418 82.9527 73.8959C82.9527 74.2499 82.8148 74.5827 82.5645 74.833C82.3141 75.0834 81.9813 75.2213 81.6273 75.2213Z" fill="#F6471E"/>
<path d="M81.6272 74.4275C81.4831 74.4275 81.3531 74.3737 81.2512 74.2718C81.1493 74.1699 81.0955 74.0399 81.0955 73.8958C81.0955 73.7517 81.1493 73.6217 81.2512 73.5198C81.3531 73.4179 81.4831 73.3641 81.6272 73.3641C81.7713 73.3641 81.9013 73.4179 82.0032 73.5198C82.1051 73.6217 82.1589 73.7517 82.1589 73.8958C82.1589 74.0399 82.1051 74.1699 82.0032 74.2718C81.9013 74.3737 81.7713 74.4275 81.6272 74.4275Z" fill="white"/>
<path d="M81.7723 73.7645L86.9623 70.3427" stroke="#1B1464" stroke-width="0.132527" stroke-miterlimit="10"/>
<path d="M81.8075 73.7413C81.8385 73.5901 81.7632 73.3812 81.6843 73.2538C81.6701 73.5041 81.6042 73.7575 81.4619 73.9691C81.7102 73.9182 81.9677 73.9711 82.207 74.0466C82.108 73.9197 81.9681 73.7788 81.8075 73.7413Z" fill="#1B1464"/>
<path d="M87.3818 70.5115L87.3581 70.5048L86.9399 70.4208L87.6964 69.9221L88.1425 70.0099L87.3818 70.5115Z" fill="#1B1464"/>
<path d="M87.7401 69.3994L87.639 69.8351L86.8826 70.3338C86.9323 70.1951 86.9643 70.0489 86.9815 69.8996L87.7401 69.3994Z" fill="#1B1464"/>
<path d="M74.3623 81.0637C75.3846 81.2932 77.2799 82.6219 77.7588 83.7451C77.8846 84.0402 77.5598 84.1238 77.5146 84.4039C77.4674 84.6958 77.2871 85.0638 76.9965 85.2494C75.9861 85.8946 74.2659 86.1306 73.2747 85.9081C71.9838 85.6182 71.1807 84.2989 71.481 82.9611C71.7814 81.6234 73.0714 80.7739 74.3623 81.0637Z" fill="#FDB606"/>
<path d="M73.4089 85.5399C73.3395 85.5333 73.2704 85.5213 73.2021 85.5051C73.1337 85.4889 73.0662 85.4682 72.9999 85.4436C72.9915 85.4408 72.9834 85.4373 72.9752 85.4341L72.9505 85.4243C72.9341 85.4176 72.9179 85.4105 72.9015 85.4036C72.8852 85.3965 72.8693 85.3888 72.8532 85.3813C72.8372 85.3736 72.8214 85.3655 72.8055 85.3576C72.7421 85.3252 72.6808 85.2888 72.6215 85.249C72.5029 85.1694 72.3933 85.0758 72.2951 84.9713C72.1969 84.8667 72.11 84.7513 72.0365 84.628C71.8892 84.3816 71.7955 84.1035 71.7638 83.8203C71.7558 83.7495 71.7516 83.6784 71.7515 83.6075L71.7515 83.5809L71.752 83.5543L71.7526 83.5277C71.7529 83.5189 71.7535 83.51 71.7539 83.5012L71.7554 83.4747C71.7559 83.4659 71.7568 83.4571 71.7574 83.4483L71.7595 83.4219C71.7602 83.4131 71.7612 83.4043 71.7622 83.3955C71.7642 83.378 71.7661 83.3605 71.7686 83.343C71.7711 83.3255 71.7731 83.3081 71.7764 83.2908C71.7794 83.2734 71.782 83.2561 71.7856 83.2388C71.7873 83.2302 71.7889 83.2216 71.7907 83.213L71.7934 83.2001L71.7963 83.1873C71.8116 83.1188 71.8306 83.0513 71.8543 82.9858C71.8479 83.0552 71.8429 83.1242 71.8404 83.193C71.8393 83.2274 71.8383 83.2616 71.8385 83.2959C71.8384 83.313 71.8387 83.3301 71.839 83.3472C71.839 83.3642 71.8398 83.3813 71.8405 83.3983C71.8409 83.4068 71.8409 83.4153 71.8414 83.4238L71.8428 83.4493C71.8433 83.4578 71.8437 83.4663 71.8443 83.4748L71.8463 83.5002L71.8482 83.5255L71.8506 83.5508L71.853 83.5761L71.856 83.6013C71.864 83.6685 71.8745 83.7352 71.8877 83.8011C71.9142 83.933 71.9513 84.0621 71.9991 84.1869C72.0468 84.3116 72.1051 84.432 72.1732 84.5465C72.2414 84.6609 72.3196 84.7693 72.407 84.8701C72.4943 84.9709 72.5908 85.0641 72.6954 85.1483C72.7477 85.1904 72.8021 85.2301 72.8582 85.2677C72.8723 85.2769 72.8863 85.2863 72.9006 85.2953L72.9438 85.322C72.9584 85.3306 72.9729 85.3395 72.9876 85.3479L73.0321 85.3727C73.0918 85.4054 73.1532 85.4354 73.2161 85.4632C73.279 85.4909 73.3434 85.5161 73.4089 85.5399Z" fill="white"/>
<path d="M77.6873 83.8529L77.6729 83.917L75.7863 83.4935C75.8728 83.8883 75.7816 84.2483 75.78 84.2547C75.7646 84.3107 75.7485 84.3617 75.7314 84.4076L77.349 84.7707L77.3346 84.8348L75.7066 84.4694C75.6539 84.5906 75.5934 84.6684 75.5238 84.7055C75.4721 84.7331 75.4166 84.7372 75.3587 84.7177C75.2363 84.6766 75.2052 84.5696 75.2286 84.4861C75.2536 84.3966 75.3447 84.3208 75.4706 84.349L75.6667 84.393C75.6841 84.347 75.7008 84.2951 75.7166 84.2376C75.7182 84.2317 75.8101 83.8669 75.7152 83.4775L74.8723 83.2883C74.7544 83.2618 74.6565 83.1864 74.6103 83.0864C74.571 83.0016 74.5731 82.9156 74.6163 82.831C74.6604 82.7445 74.7389 82.6797 74.8374 82.6484C74.9476 82.6134 75.0705 82.6246 75.1744 82.6793C75.5249 82.8634 75.6933 83.1465 75.7687 83.4222L77.6873 83.8529ZM75.2902 84.5103C75.2788 84.5611 75.2955 84.6271 75.3797 84.6554C75.4203 84.6691 75.4573 84.6665 75.493 84.6475C75.5469 84.6188 75.5965 84.5542 75.6413 84.4547L75.4562 84.4131C75.3663 84.3929 75.308 84.4459 75.2919 84.5037C75.2913 84.5059 75.2907 84.5081 75.2902 84.5103ZM74.653 82.9199C74.6427 82.9662 74.6483 83.012 74.6699 83.0588C74.7076 83.1403 74.7887 83.2022 74.8868 83.2242L75.6956 83.4058C75.6194 83.1554 75.4598 82.9034 75.1438 82.7374C75.0554 82.6909 74.9509 82.6813 74.8573 82.711C74.7757 82.7369 74.7109 82.7901 74.6748 82.8608C74.6647 82.8806 74.6574 82.9003 74.653 82.9199Z" fill="#040C2B"/>
<path d="M77.228 82.9444L78.867 83.3124C78.918 83.3238 78.9666 83.3401 79.0126 83.3605C79.3428 83.5072 79.5348 83.871 79.4527 84.2371L79.2333 85.2142C79.189 85.4116 79.073 85.5742 78.9188 85.6809C78.787 85.7722 78.6273 85.8225 78.4607 85.8186C78.4104 85.8174 78.3596 85.8113 78.3086 85.7999L76.6696 85.4319L77.228 82.9444Z" fill="#829CF8"/>
<g opacity="0.5">
<path d="M77.4489 82.9991L76.8904 85.4865L77.08 85.5291L77.6386 83.0417L77.4489 82.9991Z" fill="white"/>
<path d="M77.909 83.1023L77.3505 85.5898L77.5401 85.6324L78.0987 83.1449L77.909 83.1023Z" fill="white"/>
<path d="M78.3692 83.2056L77.8107 85.6931L78.0003 85.7356L78.5589 83.2482L78.3692 83.2056Z" fill="white"/>
<path d="M78.8269 83.3035L78.8677 83.3126C78.9187 83.3241 78.9673 83.3403 79.0133 83.3607L78.4614 85.8189C78.4111 85.8177 78.3602 85.8116 78.3092 85.8001L78.2684 85.791L78.8269 83.3035Z" fill="white"/>
</g>
<path opacity="0.1" d="M77.2276 82.9446L78.8667 83.3126C78.9176 83.324 78.9663 83.3403 79.0122 83.3607C79.3425 83.5074 79.5345 83.8712 79.4523 84.2373L79.2329 85.2145C79.1886 85.4118 79.0726 85.5744 78.9185 85.6811C79.0986 85.3514 79.1489 85.0062 79.1493 84.7251C79.15 84.2546 78.8587 83.8345 78.4179 83.67C77.995 83.5122 77.4773 83.4339 77.1262 83.3963L77.2276 82.9446Z" fill="black"/>
<path d="M99.3533 58.7943L94.6626 58.6032C94.1416 58.582 93.7021 58.9871 93.6809 59.5081L93.5141 63.6017C93.4929 64.1227 93.898 64.5623 94.419 64.5835L99.1097 64.7745C99.6307 64.7958 100.07 64.3906 100.091 63.8697L100.258 59.776C100.279 59.2551 99.8743 58.8155 99.3533 58.7943Z" fill="#DEE4FC"/>
<path d="M94.6678 61.0281V63.3646H96.0536V61.0281H94.6678ZM95.6692 63.167C95.5507 63.167 95.4546 63.0747 95.4546 62.9608C95.4546 62.847 95.5507 62.7547 95.6692 62.7547C95.7877 62.7547 95.8838 62.847 95.8838 62.9608C95.8838 63.0747 95.7877 63.167 95.6692 63.167Z" fill="white"/>
<path d="M96.4207 61.3372V63.1668C96.4207 63.1668 96.675 63.1016 96.8865 63.3442C96.8958 63.3548 96.9034 63.3668 96.9094 63.3794C96.9322 63.4269 97.0325 63.5705 97.413 63.5705H98.4204C98.4306 63.5705 98.4406 63.5696 98.4506 63.5677C98.5191 63.5547 98.7548 63.4864 98.745 63.1645C98.7434 63.1126 98.7698 63.0638 98.8146 63.0347C98.9097 62.973 99.0464 62.8211 98.9537 62.4791C98.9423 62.437 98.9504 62.392 98.9763 62.3564C99.0575 62.2448 99.2067 61.9848 99.0068 61.7925C98.9701 61.7573 98.9548 61.7066 98.965 61.6578C98.9947 61.5168 99.0085 61.2396 98.6836 61.1692C98.6721 61.1667 98.6603 61.1654 98.6486 61.1654H98.0467C97.9534 61.1654 97.881 61.0872 97.8918 60.9982C97.945 60.5615 98.0341 59.4527 97.4913 59.9239C97.4649 59.9468 97.4471 59.9776 97.4414 60.0114C97.4017 60.2468 97.1868 61.2613 96.4207 61.3372Z" fill="white"/>
<path d="M33.3968 48.4316H28.6198C28.0983 48.4316 27.6757 48.0089 27.6757 47.4875V43.2957C27.6757 42.7743 28.0984 42.3517 28.6198 42.3517H33.3968C33.9182 42.3517 34.3409 42.7743 34.3409 43.2957V47.4875C34.3409 48.0089 33.9182 48.4316 33.3968 48.4316Z" fill="#DEE4FC"/>
<path d="M31.009 44.4616C29.9988 43.1064 29.2256 44.4629 29.3948 45.1971C29.5968 46.0737 30.9032 46.835 31.0058 46.8936V46.8972C31.0058 46.8972 31.0069 46.8965 31.009 46.8954C31.011 46.8965 31.0122 46.8972 31.0122 46.8972V46.8936C31.1147 46.835 32.4212 46.0737 32.6232 45.1971C32.7923 44.4629 32.0191 43.1064 31.009 44.4616Z" fill="white"/>
<path d="M18.8579 58.4541H14.0808C13.5594 58.4541 13.1367 58.0314 13.1367 57.51V53.3182C13.1367 52.7968 13.5594 52.3741 14.0808 52.3741H18.8579C19.3793 52.3741 19.802 52.7968 19.802 53.3182V57.51C19.802 58.0314 19.3793 58.4541 18.8579 58.4541Z" fill="#DEE4FC"/>
<path d="M16.8932 53.7775H16.0447C15.5017 53.7775 15.0615 54.1465 15.0615 54.6017V55.3131C15.0615 55.7638 15.4929 56.1298 16.0283 56.1372C16.0115 56.4398 15.9461 56.8854 15.7136 57.0507C15.7136 57.0507 16.4597 56.5664 16.772 56.1374H16.8932C17.4362 56.1374 17.8764 55.7684 17.8764 55.3131V54.6017C17.8764 54.1465 17.4362 53.7775 16.8932 53.7775Z" fill="white"/>
<path d="M23.1403 72.695H18.4457C17.9243 72.695 17.5016 72.2723 17.5016 71.7509V67.6538C17.5016 67.1324 17.9243 66.7097 18.4457 66.7097H23.1403C23.6617 66.7097 24.0844 67.1324 24.0844 67.6538V71.7509C24.0844 72.2723 23.6617 72.695 23.1403 72.695Z" fill="#DEE4FC"/>
<path d="M22.883 68.4126V70.9925C22.883 71.045 22.8661 71.0936 22.8378 71.1331C22.8119 71.1682 22.7771 71.1963 22.7365 71.2134C22.7079 71.2256 22.6763 71.2324 22.6433 71.2324H18.9439C18.9108 71.2324 18.8792 71.2256 18.8506 71.2134C18.8101 71.1963 18.7753 71.1682 18.7494 71.1331C18.721 71.0936 18.7041 71.045 18.7041 70.9925V68.4126C18.7041 68.3725 18.714 68.3344 18.7315 68.3014C18.7511 68.2638 18.7805 68.2322 18.816 68.2098C18.8531 68.1862 18.8969 68.1728 18.9439 68.1728H22.6432C22.6903 68.1728 22.734 68.1862 22.7711 68.2098C22.8067 68.2322 22.836 68.2638 22.8557 68.3014C22.8731 68.3344 22.883 68.3725 22.883 68.4126Z" fill="white"/>
<path d="M22.8553 68.3019L21.0792 69.8476L20.983 69.9314L20.9434 69.9657C20.9006 70.003 20.8469 70.0217 20.7932 70.0217C20.7395 70.0217 20.6857 70.003 20.6429 69.9657L20.6034 69.9314L20.5071 69.8476L18.7311 68.3019C18.7507 68.2643 18.7801 68.2327 18.8157 68.2103L20.6101 69.7722L20.7064 69.856L20.7245 69.8719C20.7636 69.9058 20.8228 69.9058 20.8618 69.8719L20.88 69.856L20.9763 69.7722L22.7707 68.2103C22.8062 68.2327 22.8356 68.2643 22.8553 68.3019Z" fill="#829CF8"/>
<path d="M20.7062 69.856L20.6032 69.9314L18.85 71.2139C18.8095 71.1968 18.7747 71.1686 18.7488 71.1336L20.5069 69.8475L20.6099 69.7722L20.7062 69.856Z" fill="#829CF8"/>
<path d="M22.8369 71.1335C22.811 71.1685 22.7762 71.1966 22.7357 71.2138L20.9825 69.9313L20.8795 69.8559L20.9758 69.7721L21.0788 69.8475L22.8369 71.1335Z" fill="#829CF8"/>
<path d="M106.32 44.0004L101.627 44.0959C101.105 44.1065 100.674 43.6925 100.663 43.1712L100.58 39.0751C100.569 38.5538 100.983 38.1226 101.505 38.112L106.198 38.0164C106.72 38.0058 107.151 38.4198 107.161 38.9411L107.245 43.0373C107.255 43.5586 106.841 43.9898 106.32 44.0004Z" fill="#DEE4FC"/>
<path d="M105.934 42.0293L105.917 42.3356L105.917 42.3417L105.918 42.3422L106.059 42.3902C106.034 42.4821 105.996 42.5681 105.946 42.6457C105.946 42.6472 105.945 42.6486 105.944 42.6499L105.89 42.6235L105.801 42.5798L105.617 42.8255L105.682 42.918C105.605 42.969 105.521 43.0077 105.431 43.0317L105.402 42.8875L105.106 42.8815L105.062 43.0448C104.963 43.0259 104.869 42.9893 104.785 42.9383L104.871 42.7938L104.67 42.5658L104.505 42.6649L104.504 42.6657C104.5 42.6598 104.496 42.6538 104.493 42.6478C104.429 42.5462 104.384 42.4305 104.362 42.3062L104.507 42.2741L104.523 41.9616L104.374 41.915C104.4 41.803 104.446 41.6991 104.507 41.6074L104.66 41.699L104.867 41.4746L104.785 41.3367C104.89 41.2715 105.01 41.2291 105.137 41.2157L105.17 41.4014L105.465 41.4161L105.511 41.2622C105.538 41.2512 105.699 41.3525 105.777 41.4207L105.682 41.5598L105.88 41.8002L106.007 41.73C106.045 41.8137 106.072 41.9044 106.085 41.9998L105.934 42.0293ZM105.234 41.5495C105.124 41.5473 105.018 41.5789 104.927 41.6401C104.896 41.661 104.866 41.6854 104.839 41.7131C104.732 41.8217 104.671 41.9677 104.668 42.1241C104.664 42.2806 104.719 42.4289 104.821 42.5417C104.923 42.6545 105.06 42.7182 105.208 42.7212C105.356 42.7242 105.496 42.666 105.603 42.5575C105.71 42.4489 105.771 42.303 105.774 42.1465C105.778 41.99 105.723 41.8417 105.621 41.7289C105.611 41.7174 105.6 41.7064 105.589 41.696C105.491 41.6038 105.367 41.5522 105.234 41.5495Z" fill="white"/>
<path d="M105.679 40.0227L105.661 40.3821L105.66 40.3892L105.662 40.3898L105.816 40.4459C105.788 40.5538 105.746 40.6548 105.692 40.746C105.691 40.7476 105.69 40.7493 105.689 40.7509L105.63 40.7199L105.533 40.6688L105.331 40.9574L105.403 41.0658C105.319 41.1257 105.226 41.1713 105.128 41.1995L105.096 41.0305L104.773 41.024L104.724 41.2156C104.616 41.1936 104.514 41.1508 104.422 41.0911L104.516 40.9214L104.296 40.6542L104.116 40.7707L104.115 40.7718C104.111 40.7648 104.106 40.7578 104.102 40.7507C104.033 40.6316 103.984 40.496 103.961 40.3502L104.119 40.3123L104.137 39.9457L103.974 39.8913C104.003 39.7598 104.053 39.6378 104.12 39.5301L104.287 39.6373L104.514 39.3738L104.424 39.2121C104.54 39.1355 104.671 39.0855 104.81 39.0696L104.845 39.2874L105.168 39.3042L105.219 39.1235C105.248 39.1106 105.424 39.2291 105.509 39.3091L105.405 39.4723L105.621 39.7541L105.76 39.6716C105.802 39.7697 105.831 39.8761 105.845 39.988L105.679 40.0227ZM104.915 39.461C104.795 39.4585 104.679 39.4958 104.579 39.5677C104.545 39.5923 104.513 39.621 104.483 39.6536C104.366 39.7811 104.299 39.9525 104.295 40.1361C104.291 40.3197 104.35 40.4936 104.461 40.6257C104.573 40.7578 104.723 40.8324 104.885 40.8357C105.046 40.8389 105.2 40.7705 105.317 40.643C105.434 40.5154 105.501 40.3441 105.505 40.1605C105.509 39.9769 105.45 39.803 105.338 39.6709C105.327 39.6574 105.315 39.6445 105.303 39.6323C105.196 39.5243 105.06 39.4639 104.915 39.461Z" fill="white"/>
<path d="M104.102 41.3342L104.076 41.8291L104.075 41.839L104.078 41.8398L104.289 41.917C104.251 42.0656 104.193 42.2046 104.119 42.3302C104.118 42.3325 104.116 42.3347 104.115 42.337L104.034 42.2943L103.9 42.224L103.623 42.6213L103.721 42.7706C103.605 42.8531 103.478 42.9159 103.343 42.9548L103.299 42.722L102.855 42.7131L102.788 42.9769C102.639 42.9466 102.499 42.8877 102.372 42.8054L102.502 42.5718L102.199 42.2039L101.952 42.3644L101.95 42.3658C101.944 42.3562 101.939 42.3466 101.933 42.3368C101.838 42.1729 101.77 41.986 101.738 41.7853L101.956 41.7331L101.981 41.2282L101.757 41.1533C101.797 40.9722 101.865 40.8043 101.957 40.656L102.187 40.8036L102.499 40.4406L102.376 40.218C102.535 40.1124 102.714 40.0437 102.906 40.0218L102.954 40.3217L103.398 40.3448L103.468 40.0961C103.508 40.0782 103.75 40.2415 103.868 40.3515L103.724 40.5764L104.021 40.9644L104.212 40.8507C104.27 40.9858 104.31 41.1323 104.329 41.2864L104.102 41.3342ZM103.05 40.5607C102.885 40.5574 102.726 40.6087 102.589 40.7077C102.542 40.7416 102.497 40.7811 102.456 40.826C102.295 41.0016 102.203 41.2376 102.198 41.4904C102.192 41.7432 102.273 41.9826 102.427 42.1646C102.58 42.3466 102.786 42.4492 103.008 42.4537C103.231 42.4582 103.442 42.364 103.603 42.1883C103.764 42.0127 103.855 41.7768 103.861 41.524C103.867 41.2711 103.785 41.0317 103.632 40.8498C103.617 40.8312 103.601 40.8135 103.584 40.7966C103.437 40.6479 103.25 40.5648 103.05 40.5607Z" fill="white"/>
<path d="M90.9717 35.0667H86.2771C85.7557 35.0667 85.333 34.644 85.333 34.1226V30.0256C85.333 29.5042 85.7557 29.0815 86.2771 29.0815H90.9717C91.4931 29.0815 91.9158 29.5042 91.9158 30.0256V34.1226C91.9158 34.644 91.4931 35.0667 90.9717 35.0667Z" fill="#DEE4FC"/>
<path d="M91.0223 33.4906L88.7315 32.002C88.8001 31.7937 88.8222 31.5647 88.7864 31.33C88.6688 30.5605 87.9751 30.0238 87.2371 30.1314C86.499 30.2389 85.996 30.9498 86.1136 31.7193C86.2312 32.4888 86.9248 33.0255 87.6629 32.918C87.9737 32.8727 88.2426 32.7202 88.4412 32.5015L90.7165 33.9794C90.8479 34.0698 91.023 34.0336 91.1075 33.8987C91.1919 33.7637 91.1538 33.581 91.0223 33.4906ZM87.6242 32.6647C87.0213 32.7525 86.4526 32.3126 86.3566 31.684C86.2605 31.0554 86.6729 30.4725 87.2758 30.3847C87.8787 30.2969 88.4473 30.7368 88.5434 31.3654C88.6394 31.9941 88.2271 32.5769 87.6242 32.6647Z" fill="white"/>
<path d="M86.5632 31.0851C86.549 31.177 86.541 31.2688 86.5379 31.3605C86.5354 31.4522 86.5384 31.5437 86.5495 31.6341L86.5585 31.7018L86.5723 31.7686C86.5758 31.7912 86.583 31.8128 86.5889 31.8348C86.5955 31.8565 86.6 31.8791 86.6086 31.9001L86.6319 31.9645C86.6405 31.9857 86.651 32.0059 86.6604 32.0269L86.6745 32.0584L86.6917 32.0883C86.7033 32.1082 86.7146 32.1285 86.7257 32.1491C86.7108 32.1314 86.6959 32.1134 86.6813 32.0951C86.674 32.086 86.6666 32.0768 86.6596 32.0674L86.6411 32.0376C86.6292 32.0174 86.6163 31.9976 86.6052 31.9768L86.5759 31.9125C86.5405 31.8253 86.5151 31.7333 86.5049 31.6395C86.4944 31.5459 86.4933 31.4514 86.5031 31.3582C86.5129 31.2651 86.5309 31.1726 86.5632 31.0851Z" fill="white"/>
<path d="M41.57 28.5091L36.8764 28.6046C36.3551 28.6152 35.9239 28.2012 35.9133 27.6799L35.8299 23.5838C35.8193 23.0625 36.2333 22.6313 36.7546 22.6207L41.4482 22.5251C41.9695 22.5145 42.4007 22.9285 42.4113 23.4498L42.4947 27.546C42.5053 28.0673 42.0913 28.4985 41.57 28.5091Z" fill="#DEE4FC"/>
<path d="M38.9242 25.6919L40.6065 24.0096C40.8208 24.2294 40.9899 24.4838 41.1094 24.7663C41.2337 25.0601 41.2986 25.3713 41.3023 25.6919H38.9242Z" fill="#829CF8"/>
<path d="M38.8799 23.5815C39.1576 23.5854 39.4272 23.6419 39.6817 23.7495C39.9273 23.8534 40.1488 24.0005 40.3404 24.1869L38.8799 25.6473V23.5815Z" fill="#ACBCF8"/>
<path d="M38.8478 27.5483C38.3599 27.5483 37.9013 27.3583 37.5563 27.0133C37.2113 26.6683 37.0214 26.2097 37.0214 25.7218C37.0214 25.2339 37.2113 24.7753 37.5563 24.4303C37.8939 24.0927 38.3403 23.9036 38.8164 23.8956V25.7548H40.674C40.6656 26.2306 40.4763 26.6766 40.1388 27.0138C39.7939 27.3584 39.3355 27.5483 38.8478 27.5483Z" fill="white"/>
</svg>
