<svg width="91" height="60" viewBox="0 0 91 60" fill="none" xmlns="http://www.w3.org/2000/svg">
<g clip-path="url(#clip0_6023_1703)">
<g clip-path="url(#clip1_6023_1703)">
<path d="M63.1121 0.325623H19.7014C18.845 0.325623 18.1509 1.01981 18.1509 1.87606C18.1509 53.7676 18.5386 50.8218 17.2362 52.1242C16.6575 52.7064 15.8713 53.0355 15.0502 53.0388C14.1939 53.0388 13.4998 53.7329 13.4998 54.5893C13.4998 55.4455 14.1938 56.1396 15.0502 56.1396H58.4611C61.886 56.1396 64.6626 53.3631 64.6626 49.9381V1.87606C64.6626 1.01981 63.9685 0.325623 63.1121 0.325623Z" fill="#F2F2F2"/>
<path d="M29.0036 20.4801H33.6547C34.511 20.4801 35.2052 21.1741 35.2052 22.0305V26.6817C35.2052 27.5379 34.511 28.232 33.6547 28.232H29.0036C28.1473 28.232 27.4531 27.5379 27.4531 26.6817V22.0305C27.4531 21.1741 28.1472 20.4801 29.0036 20.4801Z" fill="#9D9A96"/>
<path d="M29.0036 31.3328H33.6547C34.511 31.3328 35.2052 32.0268 35.2052 32.8831V37.5343C35.2052 38.3907 34.511 39.0847 33.6547 39.0847H29.0036C28.1473 39.0847 27.4531 38.3907 27.4531 37.5343V32.8831C27.4531 32.0268 28.1472 31.3328 29.0036 31.3328Z" fill="#9D9A96"/>
<path d="M29.0036 42.1852H33.6547C34.511 42.1852 35.2052 42.8793 35.2052 43.7356V48.3867C35.2052 49.243 34.511 49.9372 33.6547 49.9372H29.0036C28.1473 49.9372 27.4531 49.243 27.4531 48.3867V43.7356C27.4531 42.8793 28.1472 42.1852 29.0036 42.1852Z" fill="#9D9A96"/>
<path d="M53.8092 25.1316H39.8559C38.9995 25.1316 38.3053 24.4375 38.3053 23.5811C38.3053 22.7249 38.9995 22.0309 39.8559 22.0309H53.8092C54.6656 22.0309 55.3597 22.7249 55.3597 23.5811C55.3597 24.4374 54.6656 25.1316 53.8092 25.1316Z" fill="#C5C5C5"/>
<path d="M53.8098 15.8298H29.0037C28.1474 15.8298 27.4532 15.1358 27.4532 14.2794C27.4532 13.4231 28.1473 12.7291 29.0037 12.7291H53.8099C54.6663 12.7291 55.3604 13.4231 55.3604 14.2794C55.3602 15.1356 54.6662 15.8298 53.8098 15.8298Z" fill="#C5C5C5"/>
<path d="M53.8092 35.9852H39.8559C38.9995 35.9852 38.3053 35.2911 38.3053 34.4348C38.3053 33.5786 38.9995 32.8844 39.8559 32.8844H53.8092C54.6656 32.8844 55.3597 33.5786 55.3597 34.4348C55.3597 35.2911 54.6656 35.9852 53.8092 35.9852Z" fill="#C5C5C5"/>
<path d="M53.8092 46.8375H39.8559C38.9995 46.8375 38.3053 46.1435 38.3053 45.2872C38.3053 44.4308 38.9995 43.7368 39.8559 43.7368H53.8092C54.6656 43.7368 55.3597 44.4308 55.3597 45.2872C55.3597 46.1433 54.6656 46.8375 53.8092 46.8375Z" fill="#C5C5C5"/>
<path d="M13.5015 56.1398C10.9328 56.1398 8.85034 54.0575 8.85034 51.4886V48.3879C8.85034 47.5317 9.54438 46.8375 10.4008 46.8375H18.1527V51.4886C18.1527 54.0575 16.0703 56.1398 13.5015 56.1398Z" fill="#D7D7D7"/>
</g>
<path d="M58.4232 43.6467C60.5177 47.2947 61.2568 52.3618 61.5049 54.8765C61.524 55.0713 61.5838 55.26 61.6805 55.4303C61.7773 55.6006 61.9087 55.7487 62.0664 55.8651C62.224 55.9815 62.4044 56.0635 62.5959 56.106C62.7873 56.1484 62.9855 56.1503 63.1777 56.1114L67.5314 55.2346C67.8504 55.1703 68.1371 54.9974 68.3425 54.7454C68.5479 54.4935 68.6592 54.1781 68.6575 53.8532C68.6126 46.9157 65.684 41.0681 65.684 41.0681L58.4232 43.6467Z" fill="#29895C"/>
<path d="M58.5901 49.7385C55.9262 50.8232 52.6222 48.9012 51.2106 45.4459C49.799 41.9905 50.8151 38.3104 53.479 37.2248L59.0065 34.8865L64.1483 47.4747L58.5901 49.7385Z" fill="#43B680"/>
<path d="M59.306 34.8541C56.6417 35.9387 55.668 39.6174 57.0793 43.0752C58.4906 46.5331 61.7529 48.4525 64.4171 47.3682C72.5834 44.0434 81.4548 49.2771 84.9563 47.7631L73.7116 20.2332C70.1478 21.5955 67.4723 31.5297 59.306 34.8541Z" fill="#F9F9F9"/>
<path d="M69.336 25.1867C69.1161 28.1823 69.9852 32.621 71.885 37.2721C73.638 41.5637 75.8919 45.1157 78.002 47.201C80.9843 47.8237 83.4609 48.4084 84.9567 47.7616L73.7119 20.2332C72.2504 20.7921 70.9385 22.792 69.336 25.1867Z" fill="#43B680"/>
<path d="M84.9554 47.7708C87.6197 46.6864 87.2628 39.6445 84.1582 32.0422C81.0535 24.44 76.3769 19.1562 73.7125 20.2405C71.0482 21.3249 71.4051 28.3668 74.5097 35.969C77.6144 43.5713 82.291 48.8551 84.9554 47.7708Z" fill="#7BC8A4"/>
<path d="M55.9771 37.2098L52.1024 38.7868C52.008 38.8252 51.9627 38.9327 52.0012 39.0269L52.0826 39.2262C52.121 39.3204 52.2287 39.3657 52.3231 39.3272L56.1978 37.7503C56.2922 37.7119 56.3375 37.6044 56.299 37.5102L56.2176 37.3109C56.1791 37.2167 56.0715 37.1714 55.9771 37.2098Z" fill="white"/>
<path d="M55.3339 40.922L51.4592 42.499C51.3648 42.5374 51.3195 42.6449 51.358 42.7391L51.4394 42.9384C51.4778 43.0326 51.5855 43.0778 51.6799 43.0394L55.5546 41.4624C55.649 41.424 55.6943 41.3165 55.6558 41.2223L55.5744 41.023C55.536 40.9288 55.4283 40.8836 55.3339 40.922Z" fill="white"/>
<path d="M56.893 44.6652L53.0183 46.2422C52.9239 46.2806 52.8786 46.3881 52.9171 46.4822L52.9985 46.6816C53.0369 46.7757 53.1446 46.821 53.2389 46.7826L57.1137 45.2056C57.2081 45.1672 57.2534 45.0597 57.2149 44.9655L57.1335 44.7662C57.095 44.672 56.9874 44.6268 56.893 44.6652Z" fill="white"/>
<path d="M59.7762 47.4051L55.9014 48.9821C55.8071 49.0205 55.7618 49.128 55.8002 49.2222L55.8816 49.4215C55.9201 49.5157 56.0278 49.5609 56.1221 49.5225L59.9969 47.9456C60.0912 47.9072 60.1365 47.7997 60.0981 47.7055L60.0167 47.5062C59.9782 47.412 59.8705 47.3667 59.7762 47.4051Z" fill="white"/>
<path d="M74.1242 31.6076C73.7792 31.748 73.4568 31.9382 73.1671 32.1721C73.5343 33.4021 73.98 34.6744 74.5077 35.963C75.0354 37.2516 75.6059 38.4731 76.2042 39.6085C76.575 39.5735 76.9386 39.4843 77.2833 39.3436C77.7472 39.1547 78.1693 38.8765 78.5255 38.5249C78.8817 38.1732 79.165 37.7549 79.3593 37.2939C79.5536 36.8329 79.655 36.3382 79.6577 35.8381C79.6605 35.338 79.5645 34.8422 79.3753 34.3791L79.0964 33.6967C78.7146 32.7615 77.9762 32.0159 77.0437 31.6242C76.1113 31.2324 75.0611 31.2264 74.1242 31.6076Z" fill="white"/>
<g style="mix-blend-mode:multiply">
<path d="M62.0726 37.5791C61.7753 37.7303 61.4301 37.7574 61.1128 37.6544C60.7955 37.5515 60.5321 37.3269 60.3807 37.0301C60.2293 36.7333 60.2021 36.3886 60.3053 36.0719C60.4084 35.7551 60.6334 35.4922 60.9307 35.3411C62.6724 34.4466 64.3647 33.218 65.9605 31.6895C66.0797 31.5753 66.2202 31.4857 66.3741 31.4257C66.528 31.3658 66.6922 31.3367 66.8574 31.34C67.0226 31.3434 67.1855 31.3793 67.3367 31.4455C67.488 31.5117 67.6248 31.6071 67.7392 31.7261C67.8536 31.845 67.9434 31.9854 68.0034 32.139C68.0635 32.2926 68.0927 32.4566 68.0893 32.6215C68.0859 32.7863 68.05 32.9489 67.9836 33.1C67.9173 33.251 67.8218 33.3875 67.7026 33.5017C65.9308 35.1985 64.0399 36.5689 62.0829 37.5745L62.0726 37.5791Z" fill="#E6E6E6"/>
</g>
<path d="M78.2954 25.3236L83.895 19.0614C83.9578 18.9912 84.0368 18.9374 84.1252 18.9047C84.2135 18.8721 84.3086 18.8615 84.402 18.8739C84.4954 18.8863 84.5844 18.9214 84.6611 18.976C84.7379 19.0307 84.8 19.1032 84.8422 19.1873L85.7541 21.008C85.8165 21.1327 85.8316 21.2757 85.7965 21.4107C85.7614 21.5456 85.6785 21.6633 85.5632 21.7419L79.0521 26.1834C78.9293 26.2672 78.7789 26.3005 78.6321 26.2763C78.4854 26.2521 78.3536 26.1723 78.2643 26.0536C78.1843 25.947 78.1437 25.8161 78.1493 25.683C78.155 25.55 78.2066 25.423 78.2954 25.3236Z" fill="#5B91DC"/>
<path d="M81.9557 43.4578L89.513 47.1382C89.5978 47.1795 89.6913 47.1995 89.7855 47.1963C89.8798 47.1932 89.9718 47.1671 90.0536 47.1203C90.1354 47.0735 90.2044 47.0074 90.2547 46.9278C90.3051 46.8482 90.3351 46.7575 90.3422 46.6637L90.496 44.6341C90.5065 44.4951 90.4662 44.357 90.3826 44.2454C90.299 44.1337 90.1776 44.0561 90.0411 44.0269L82.33 42.376C82.1846 42.3448 82.0327 42.3709 81.9061 42.4488C81.7795 42.5267 81.6879 42.6504 81.6504 42.7941C81.6166 42.9229 81.6286 43.0594 81.6843 43.1804C81.7399 43.3014 81.8359 43.3994 81.9557 43.4578Z" fill="#5BDC68"/>
<path d="M81.9489 32.3759L89.5323 28.7495C89.6173 28.7089 89.711 28.6897 89.8052 28.6936C89.8993 28.6974 89.9911 28.7242 90.0725 28.7716C90.1539 28.819 90.2225 28.8855 90.2722 28.9654C90.322 29.0453 90.3514 29.1362 90.3579 29.23L90.4972 31.2606C90.5067 31.3997 90.4654 31.5376 90.3809 31.6486C90.2964 31.7597 90.1745 31.8364 90.0377 31.8647L82.315 33.4606C82.1693 33.4906 82.0176 33.4634 81.8915 33.3845C81.7654 33.3056 81.6746 33.1812 81.6382 33.0372C81.6057 32.9081 81.6188 32.7718 81.6755 32.6513C81.7321 32.5308 81.8287 32.4335 81.9489 32.3759Z" fill="#DCCF5B"/>
</g>
<defs>
<clipPath id="clip0_6023_1703">
<rect width="90.6977" height="60" fill="white" transform="translate(0.151123)"/>
</clipPath>
<clipPath id="clip1_6023_1703">
<rect width="55.814" height="55.814" fill="white" transform="translate(9.22095 0.698013)"/>
</clipPath>
</defs>
</svg>
