<svg width="12" height="12" viewBox="0 0 12 12" fill="none" xmlns="http://www.w3.org/2000/svg">
<path d="M11.1465 7.8535L10.0025 6.7095L10.7095 6.0025L11.8535 7.1465L11.1465 7.8535ZM11.8535 2.8535L11.1465 2.1465L10.0215 3.2715L10.7285 3.9785L11.8535 2.8535ZM12 4.5H10.5V5.5H12V4.5ZM4.185 8.5H1.3695L2.925 12H3.625C3.85411 11.9999 4.07957 11.9425 4.2809 11.8332C4.48224 11.7238 4.65309 11.566 4.77795 11.3739C4.9028 11.1818 4.97771 10.9615 4.99588 10.7331C5.01406 10.5047 4.97491 10.2754 4.882 10.066L4.185 8.5ZM9 0V10H8C7.99921 9.3372 7.73556 8.70178 7.26689 8.23311C6.79822 7.76444 6.1628 7.50079 5.5 7.5H1.5C1.10218 7.5 0.720644 7.34196 0.43934 7.06066C0.158035 6.77936 0 6.39782 0 6L0 4C0 3.60218 0.158035 3.22064 0.43934 2.93934C0.720644 2.65804 1.10218 2.5 1.5 2.5H5.5C6.1628 2.49921 6.79822 2.23556 7.26689 1.76689C7.73556 1.29822 7.99921 0.662798 8 0L9 0Z" fill="#00AA5B"/>
</svg>
