<svg width="11" height="12" viewBox="0 0 11 12" fill="none" xmlns="http://www.w3.org/2000/svg">
<path d="M9.04435 1.33333H8.51571V0.750001C8.51571 0.400001 8.30425 0.166668 7.98706 0.166668C7.66987 0.166668 7.45842 0.400001 7.45842 0.750001V1.33333H3.22925V0.750001C3.22925 0.400001 3.01779 0.166668 2.7006 0.166668C2.38341 0.166668 2.17196 0.400001 2.17196 0.750001V1.33333H1.64331C0.744613 1.33333 0.057373 2.09167 0.057373 3.08333V3.66667H10.6303V3.08333C10.6303 2.09167 9.94305 1.33333 9.04435 1.33333ZM0.057373 10.0833C0.057373 11.075 0.744613 11.8333 1.64331 11.8333H9.04435C9.94305 11.8333 10.6303 11.075 10.6303 10.0833V4.83333H0.057373V10.0833ZM7.98706 6C8.30425 6 8.51571 6.23333 8.51571 6.58333C8.51571 6.93333 8.30425 7.16667 7.98706 7.16667C7.66987 7.16667 7.45842 6.93333 7.45842 6.58333C7.45842 6.23333 7.66987 6 7.98706 6ZM7.98706 8.33333C8.30425 8.33333 8.51571 8.56667 8.51571 8.91667C8.51571 9.26667 8.30425 9.5 7.98706 9.5C7.66987 9.5 7.45842 9.26667 7.45842 8.91667C7.45842 8.56667 7.66987 8.33333 7.98706 8.33333ZM5.34383 6C5.66102 6 5.87248 6.23333 5.87248 6.58333C5.87248 6.93333 5.66102 7.16667 5.34383 7.16667C5.02664 7.16667 4.81519 6.93333 4.81519 6.58333C4.81519 6.23333 5.02664 6 5.34383 6ZM5.34383 8.33333C5.66102 8.33333 5.87248 8.56667 5.87248 8.91667C5.87248 9.26667 5.66102 9.5 5.34383 9.5C5.02664 9.5 4.81519 9.26667 4.81519 8.91667C4.81519 8.56667 5.02664 8.33333 5.34383 8.33333ZM2.7006 6C3.01779 6 3.22925 6.23333 3.22925 6.58333C3.22925 6.93333 3.01779 7.16667 2.7006 7.16667C2.38341 7.16667 2.17196 6.93333 2.17196 6.58333C2.17196 6.23333 2.38341 6 2.7006 6ZM2.7006 8.33333C3.01779 8.33333 3.22925 8.56667 3.22925 8.91667C3.22925 9.26667 3.01779 9.5 2.7006 9.5C2.38341 9.5 2.17196 9.26667 2.17196 8.91667C2.17196 8.56667 2.38341 8.33333 2.7006 8.33333Z" fill="#00AA5B"/>
</svg>
