<svg width="12" height="12" viewBox="0 0 12 12" fill="none" xmlns="http://www.w3.org/2000/svg">
<path d="M11.669 6.1725L6.332 12H1.5C0.673 12 0 11.327 0 10.5V7C0 6.173 0.673 5.5 1.5 5.5H3.5V5C2.673 5 2 4.327 2 3.5H3C3 3.776 3.2245 4 3.5 4H4.688C4.86 4 5 3.86 5 3.688C5 3.5345 4.8905 3.4055 4.739 3.38L3.0965 3.1065C2.461 3.0005 2 2.456 2 1.812C2 1.0885 2.5885 0.5 3.312 0.5H3.5V0H4.5V0.5C5.327 0.5 6 1.173 6 2H5C5 1.724 4.7755 1.5 4.5 1.5H3.312C3.14 1.5 3 1.64 3 1.812C3 1.9655 3.1095 2.0945 3.261 2.12L4.9035 2.3935C5.539 2.4995 6 3.044 6 3.688C6 4.4115 5.4115 5 4.688 5H4.5V5.5H5.8935C6.5035 5.5 7 5.9965 7 6.6065C7 7.1535 6.592 7.6245 6.05 7.702L3.9295 8.005L4.071 8.9945L6.1915 8.6915C7.2225 8.5445 8 7.648 8 6.6065C8 6.497 7.984 6.392 7.9675 6.2875L9.738 4.419C9.9655 4.169 10.2865 4.0175 10.635 4.0015C10.981 3.9845 11.3165 4.106 11.574 4.3405C12.1 4.8195 12.143 5.6415 11.6685 6.173L11.669 6.1725ZM8.24 3.273L8.947 3.98L10.192 2.735C10.3905 2.5365 10.5 2.2725 10.5 1.9915C10.5 1.7105 10.3905 1.4465 10.192 1.2485L8.968 0.0245L8.261 0.7315L9.029 1.5H7V2.5H9.013L8.24 3.273Z" fill="#00AA5B"/>
</svg>
